<?xml version="1.0" standalone="no"?>
<!DOCTYPE svg PUBLIC "-//W3C//DTD SVG 20010904//EN"
 "http://www.w3.org/TR/2001/REC-SVG-20010904/DTD/svg10.dtd">
<svg version="1.0" xmlns="http://www.w3.org/2000/svg"
 width="1007.000000pt" height="1280.000000pt" viewBox="0 0 1007.000000 1280.000000"
 preserveAspectRatio="xMidYMid meet">
<g transform="translate(0.000000,1280.000000) scale(0.100000,-0.100000)"
fill="#CC5500" stroke="none">
<path d="M5770 12785 c-15 -18 -11 -59 20 -200 19 -88 21 -120 17 -265 -3 -94
-12 -195 -21 -234 -30 -133 -110 -266 -160 -266 -11 0 -32 12 -47 26 -40 38
-67 27 -109 -43 -86 -141 -179 -222 -303 -262 -147 -46 -200 -37 -281 50 -61
65 -81 71 -133 40 -50 -31 -81 -96 -109 -228 -31 -149 -44 -179 -117 -261 -89
-101 -105 -140 -137 -338 -43 -264 -149 -474 -239 -474 -60 0 -87 69 -102 263
-6 78 -15 151 -20 163 -5 15 -22 27 -49 34 -119 32 -184 180 -160 363 14 102
71 276 145 441 48 105 57 133 52 165 -5 39 -2 47 47 115 37 52 -7 106 -60 71
-39 -25 -62 -72 -74 -149 -40 -247 -109 -395 -223 -483 -44 -34 -65 -59 -82
-98 -22 -48 -27 -53 -64 -58 -54 -7 -90 -34 -129 -100 -43 -72 -104 -244 -131
-372 -12 -55 -23 -110 -26 -122 -3 -13 -24 -35 -48 -50 -99 -63 -111 -89 -87
-188 16 -68 23 -313 11 -402 -31 -224 -105 -369 -211 -416 -67 -30 -163 -28
-220 4 -46 25 -110 106 -110 139 0 18 -30 57 -89 117 -61 62 -100 24 -72 -69
9 -30 8 -50 -4 -99 -30 -115 -3 -151 189 -248 131 -66 200 -117 235 -175 29
-47 27 -74 -9 -94 -16 -9 -30 -25 -30 -34 0 -10 -10 -28 -22 -40 -19 -19 -21
-33 -22 -115 -1 -79 2 -94 16 -99 35 -11 39 -59 13 -150 -37 -126 -55 -227
-63 -348 l-7 -109 -65 -22 c-157 -53 -323 -148 -407 -234 -67 -68 -88 -111
-88 -185 0 -59 -1 -60 -32 -68 -87 -22 -112 -169 -34 -196 17 -6 46 -6 72 -1
24 4 47 8 51 9 3 0 20 12 37 26 39 32 41 75 7 125 l-25 36 25 -5 c30 -5 42 20
24 53 -10 19 -9 33 9 88 12 35 31 73 41 82 11 10 20 24 20 32 0 25 103 124
170 163 79 46 188 86 199 74 4 -5 13 -45 20 -89 6 -43 25 -126 42 -184 28 -99
29 -106 13 -118 -10 -7 -22 -13 -27 -13 -22 0 -78 -54 -99 -93 -41 -81 -26
-148 46 -201 28 -22 103 -27 206 -16 40 5 45 3 53 -20 8 -21 4 -31 -25 -61
-18 -20 -40 -38 -48 -41 -8 -2 -16 -18 -17 -34 -7 -102 -7 -136 -1 -141 5 -2
17 -23 28 -45 15 -31 17 -45 9 -55 -13 -14 -11 -15 51 -18 19 -1 62 -5 95 -8
41 -4 74 -1 109 10 l49 16 34 -39 c19 -21 46 -56 60 -77 l26 -37 -17 -90 c-10
-50 -15 -103 -11 -120 8 -35 78 -128 103 -137 30 -11 52 -36 52 -60 0 -17 9
-28 34 -39 31 -15 34 -21 40 -73 17 -147 18 -169 7 -175 -12 -8 -63 17 -180
87 -271 162 -461 335 -461 418 0 31 24 53 73 65 48 11 45 33 -9 83 -58 53
-153 102 -306 159 -119 45 -146 60 -201 111 -58 54 -80 104 -79 179 0 55 4 67
27 88 34 32 31 73 -7 92 -33 16 -71 3 -94 -33 -14 -22 -15 -29 -4 -50 11 -21
11 -29 0 -49 -23 -44 -5 -86 85 -195 47 -56 85 -105 85 -108 0 -3 -11 -19 -26
-35 -37 -45 -31 -105 13 -133 31 -20 31 -21 26 -85 -5 -54 -2 -73 16 -108 11
-22 21 -45 21 -50 0 -33 280 -303 435 -419 l30 -23 -23 -18 c-34 -27 -28 -76
11 -80 22 -3 31 3 45 27 9 17 20 31 25 31 4 0 39 -16 78 -36 57 -28 69 -38 63
-52 -4 -9 -9 -35 -12 -57 -2 -22 -7 -43 -11 -48 -7 -7 -395 38 -412 49 -5 3
-9 12 -9 20 0 12 -3 12 -24 -1 -22 -14 -25 -14 -40 0 -9 9 -16 22 -16 29 0 21
-34 46 -63 46 -14 0 -39 -11 -56 -26 -27 -23 -34 -24 -70 -14 -42 11 -58 24
-41 35 17 10 11 34 -11 45 -26 14 -52 -4 -44 -31 9 -28 -17 -25 -173 21 -302
87 -497 163 -787 305 -586 288 -967 594 -1177 947 -22 37 -42 68 -45 68 -3 0
8 -21 23 -47 229 -395 607 -714 1169 -987 129 -63 450 -196 473 -196 8 0 11
-14 10 -42 -3 -37 0 -44 25 -57 28 -16 29 -15 58 19 l29 34 47 -12 c157 -42
183 -53 183 -78 0 -28 24 -32 39 -7 9 16 15 16 108 -6 142 -33 157 -39 168
-63 16 -36 57 -45 104 -24 39 18 43 18 208 -7 92 -14 195 -29 228 -32 113 -11
125 -15 125 -35 0 -11 -12 -26 -29 -35 -17 -8 -42 -31 -56 -50 -34 -44 -27
-85 21 -136 31 -31 33 -37 19 -49 -12 -10 -24 -8 -67 12 -29 14 -75 33 -103
43 -67 24 -75 32 -75 71 0 46 -36 65 -74 40 -35 -23 -50 -20 -89 14 -19 16
-39 30 -43 30 -5 0 -27 14 -48 30 -22 17 -49 30 -62 30 -12 0 -27 7 -34 15
-31 38 -130 -6 -195 -86 -22 -27 -44 -47 -50 -46 -5 2 -20 22 -32 46 -29 57
-48 78 -102 109 -111 65 -273 12 -347 -113 -39 -67 -42 -130 -10 -201 38 -86
76 -113 169 -120 66 -6 80 -4 135 21 l61 27 21 -20 22 -20 -31 -7 c-39 -8 -43
-47 -7 -70 36 -24 70 -5 61 35 -5 23 -2 30 13 35 22 6 36 31 26 47 -4 6 -23 8
-45 4 -44 -7 -46 -4 -20 32 10 15 31 51 45 80 24 47 30 53 49 47 83 -27 122
-13 114 40 -5 28 0 36 43 73 27 23 53 42 58 42 10 0 42 -82 45 -114 2 -15 -6
-22 -31 -27 -53 -11 -82 -45 -82 -95 0 -34 5 -47 27 -64 35 -28 103 -23 137 9
12 11 28 21 34 21 15 0 15 6 2 31 -16 29 7 33 72 10 31 -11 94 -22 140 -26
147 -11 153 -15 86 -75 l-43 -38 0 -98 c0 -96 -1 -99 -23 -102 -13 -2 -26 -11
-29 -20 -9 -24 -23 -32 -61 -32 -45 0 -68 -14 -125 -72 -42 -43 -46 -51 -33
-64 8 -8 12 -21 9 -30 -3 -9 7 -29 28 -50 l34 -35 92 3 c87 3 93 4 93 24 0 12
7 27 15 34 8 7 17 28 21 47 8 42 28 52 54 28 32 -29 27 -87 -12 -130 -24 -29
-37 -36 -57 -32 -18 4 -32 -3 -54 -24 -16 -16 -24 -29 -18 -29 5 0 13 5 16 10
3 6 20 10 36 10 22 0 32 -6 39 -25 6 -16 29 -35 65 -52 74 -36 72 -53 -5 -53
-77 0 -123 -19 -181 -76 l-45 -45 -29 23 c-22 17 -43 23 -81 23 -37 0 -58 6
-73 19 -12 11 -21 14 -21 8 0 -6 5 -14 10 -17 6 -3 10 -29 10 -56 0 -43 5 -55
31 -81 28 -29 34 -30 84 -25 52 5 54 5 66 -25 7 -17 28 -46 47 -64 21 -21 32
-38 26 -43 -5 -5 -47 -15 -94 -22 -64 -11 -211 -14 -590 -14 -397 0 -515 -3
-552 -14 -54 -15 -55 -26 -1 -36 51 -9 147 -108 252 -260 111 -160 124 -172
193 -191 32 -9 61 -20 64 -25 2 -5 42 5 87 22 45 17 96 33 112 36 17 3 37 11
45 18 8 6 51 26 96 44 69 27 85 30 106 20 33 -15 68 3 68 34 0 18 16 31 85 65
47 23 89 42 94 42 5 0 13 -24 19 -52 8 -44 8 -56 -5 -70 -22 -25 -9 -48 27
-48 24 0 47 -14 96 -57 35 -32 64 -63 64 -68 0 -6 -22 -28 -50 -49 -177 -135
-218 -370 -107 -609 48 -103 143 -224 239 -306 152 -130 275 -176 448 -169
112 5 176 31 270 109 69 57 112 136 130 239 17 92 30 116 62 112 14 -2 29 2
33 7 3 6 34 11 68 11 34 0 97 7 140 15 202 39 357 1 357 -86 0 -34 30 -54 70
-45 37 7 42 -1 23 -38 -68 -133 -224 -260 -382 -313 -71 -23 -86 -25 -118 -15
-27 8 -43 21 -53 43 -9 19 -28 37 -47 45 -31 12 -33 12 -51 -19 -13 -21 -18
-43 -15 -64 5 -30 3 -32 -28 -37 -157 -27 -210 -39 -324 -74 -258 -80 -503
-193 -582 -268 -52 -49 -60 -97 -19 -115 34 -16 56 -1 122 82 125 157 333 263
634 323 69 14 147 26 175 28 l49 3 7 -39 c3 -21 12 -42 20 -47 34 -22 121 30
145 87 11 26 20 34 39 34 14 0 25 -5 25 -12 0 -7 5 -6 13 3 21 26 65 50 72 39
9 -15 25 -12 25 5 0 19 37 38 63 31 24 -6 47 9 47 31 0 8 27 39 60 69 69 65
117 127 168 221 34 60 41 68 87 84 77 27 92 25 110 -17 8 -20 15 -61 15 -91 0
-44 5 -58 25 -78 28 -29 52 -31 103 -9 25 11 63 16 120 15 64 -1 93 3 129 19
64 28 107 26 163 -10 63 -41 92 -105 110 -242 25 -202 113 -280 442 -387 177
-58 220 -62 399 -36 102 14 172 35 251 76 48 25 63 17 43 -21 -8 -16 -15 -38
-15 -49 0 -23 45 -61 72 -61 32 0 188 101 228 148 44 52 67 51 100 -4 33 -52
57 -64 125 -64 99 1 147 14 170 47 11 15 48 55 81 88 58 57 84 104 84 156 0 8
11 49 25 89 36 105 34 130 -15 177 -41 39 -95 73 -117 73 -15 0 -73 74 -73 94
0 9 12 21 27 27 14 5 48 25 74 44 25 19 51 35 57 35 6 0 39 -13 74 -28 34 -16
87 -37 116 -46 40 -14 52 -22 52 -38 0 -14 5 -18 16 -14 48 18 64 17 96 -8 49
-37 101 -56 153 -56 37 0 52 5 74 28 15 15 30 33 32 39 2 7 46 26 97 42 l92
29 43 -29 c47 -31 90 -93 130 -189 43 -100 85 -140 149 -140 48 0 80 13 128
51 54 43 86 35 166 -45 236 -237 390 -715 329 -1030 -16 -87 -36 -135 -94
-231 -40 -66 -50 -110 -35 -150 8 -19 55 -45 85 -45 36 0 88 39 111 83 19 37
20 57 20 212 -4 520 -173 1080 -496 1642 -42 72 -76 138 -76 146 0 20 144 94
208 108 116 24 221 -29 327 -167 64 -82 95 -101 137 -80 41 20 35 58 -21 139
-87 126 -212 266 -394 444 -98 95 -177 175 -177 179 0 3 20 28 44 55 84 93
104 173 70 272 -33 96 -135 147 -296 147 -113 0 -180 -14 -252 -51 -71 -37
-39 -51 -276 121 -96 69 -281 200 -410 290 -607 423 -687 480 -694 497 -7 16
63 104 106 134 46 33 127 31 238 -5 86 -28 204 -44 236 -32 39 15 -18 38 -212
86 -376 94 -661 179 -707 212 -27 19 -50 56 -98 158 -45 98 -54 118 -85 215
-33 100 -32 125 3 125 62 0 116 113 81 171 -11 17 -10 22 5 33 25 19 22 31
-23 78 -32 32 -43 39 -53 29 -9 -9 -9 -16 1 -31 18 -30 15 -60 -7 -60 -10 0
-32 -3 -50 -6 -47 -10 -50 2 -69 285 l-7 104 32 41 c45 56 44 94 -2 139 l-34
33 10 154 c6 85 15 160 20 167 6 7 8 25 4 41 -13 59 65 507 135 780 42 159
112 380 156 486 71 171 186 399 223 441 25 28 51 104 51 148 0 30 -5 40 -25
49 -58 26 -172 -47 -221 -143 -30 -60 -93 -240 -104 -299 -5 -25 -22 -110 -39
-190 -16 -80 -55 -302 -86 -495 -31 -192 -61 -354 -66 -359 -5 -6 -19 -4 -34
4 -14 8 -47 14 -72 14 -42 1 -50 -3 -67 -29 -11 -17 -34 -40 -51 -50 -41 -27
-45 -68 -10 -91 32 -21 69 -8 87 32 12 25 14 25 68 19 30 -4 58 -9 62 -11 8
-5 9 -3 -43 -269 -54 -272 -92 -414 -124 -461 -20 -29 -25 -46 -20 -70 4 -23
-6 -60 -40 -145 -54 -134 -109 -231 -160 -279 -20 -19 -43 -48 -52 -63 -8 -16
-29 -35 -46 -42 -29 -12 -34 -12 -54 8 -15 13 -23 32 -23 53 0 37 -22 64 -51
64 -44 0 -113 55 -121 95 -2 11 -12 21 -23 23 -27 5 -45 21 -45 39 0 8 -23 35
-50 61 -28 25 -50 52 -50 58 0 7 15 31 34 53 23 27 39 61 47 97 12 52 11 59
-17 126 -26 64 -36 77 -94 120 -36 26 -80 54 -97 62 -32 14 -33 18 -34 73 l-1
58 -10 -42 c-11 -50 -21 -57 -108 -73 -51 -10 -72 -20 -99 -46 -19 -19 -41
-36 -50 -39 -9 -3 -29 -36 -45 -73 -33 -76 -49 -97 -65 -87 -14 8 -217 293
-334 469 -93 138 -177 299 -180 343 -2 26 0 27 43 28 l45 0 1 -43 c1 -27 11
-57 26 -79 22 -34 27 -36 78 -37 l55 -1 6 -63 c7 -71 34 -109 103 -143 33 -16
45 -17 83 -8 46 12 65 7 45 -13 -22 -22 -13 -25 55 -23 55 2 69 6 85 25 24 30
23 59 -4 87 -18 19 -20 27 -10 45 20 41 23 83 8 124 -13 39 -68 104 -87 104
-5 0 -9 6 -9 13 0 15 -31 47 -44 47 -5 0 -1 -12 9 -26 22 -34 7 -53 -29 -36
-20 9 -35 8 -71 -4 -51 -18 -75 -13 -75 14 0 20 -34 55 -62 65 -23 8 -23 25 2
78 11 24 20 63 20 86 0 38 4 45 44 72 97 67 100 184 4 227 -54 24 -131 4 -175
-45 -18 -20 -32 -43 -33 -51 -1 -25 -25 -48 -56 -55 -43 -10 -97 -36 -110 -53
-25 -34 -34 -1 -34 125 0 271 86 521 285 823 92 140 118 205 113 277 -6 73
-17 83 -97 83 -79 0 -120 21 -144 73 -20 41 -21 63 -6 123 13 50 30 63 56 43
15 -12 16 -12 9 6 -21 50 -16 61 84 210 111 165 161 259 184 349 9 32 21 65
28 73 9 11 9 16 -2 23 -19 12 -5 100 30 176 40 88 97 174 270 404 400 532 511
757 564 1148 18 127 21 434 6 526 -13 83 -59 129 -90 91z m-2200 -1786 c0 -48
-28 -147 -62 -219 -46 -96 -188 -229 -188 -176 0 27 62 191 98 261 37 70 118
165 140 165 7 0 12 -14 12 -31z m-630 -2314 c14 -8 41 -14 60 -15 43 0 78 -22
82 -53 4 -32 39 -33 76 -3 54 46 55 42 47 -141 -4 -93 -11 -173 -15 -178 -16
-19 -104 -44 -210 -60 -58 -8 -121 -20 -140 -25 -58 -17 -63 -5 -58 145 5 139
24 216 74 303 26 45 43 50 84 27z m399 -211 c17 -14 31 -34 31 -44 0 -19 -113
-110 -137 -110 -9 0 -13 18 -13 64 0 106 53 146 119 90z m-123 -270 c13 -16
27 -102 18 -115 -3 -5 -15 -9 -28 -9 -12 0 -31 -7 -42 -15 -10 -8 -24 -15 -31
-15 -27 0 -82 -48 -109 -94 -16 -27 -40 -60 -53 -73 -22 -22 -23 -24 -8 -41
34 -38 13 -71 -37 -58 -16 4 -32 22 -46 52 l-22 45 21 23 c38 40 24 76 -30 76
-23 0 -32 21 -49 118 -9 47 -10 76 -4 82 22 22 253 50 349 43 34 -3 65 -11 71
-19z m119 -16 c33 -15 33 -38 -1 -38 -33 0 -64 17 -64 35 0 18 30 19 65 3z
m89 -2264 c26 -10 20 -67 -9 -94 l-25 -24 -35 34 c-20 19 -34 41 -33 49 2 9
21 21 43 27 22 7 41 13 42 13 1 1 8 -2 17 -5z m-194 -1266 c0 -6 6 -8 14 -5
17 7 62 -61 49 -74 -15 -14 -128 -48 -135 -40 -5 4 1 29 11 56 11 28 22 58 25
67 5 18 36 15 36 -4z m303 -139 c29 -82 29 -218 -2 -286 -22 -49 -46 -81 -55
-72 -3 2 0 23 7 46 8 31 8 51 -1 81 -12 39 -24 54 -87 105 -29 24 -29 26 -12
44 9 11 17 33 17 50 0 25 8 36 48 62 26 17 51 29 56 28 5 -2 18 -28 29 -58z
m-223 -79 c0 -12 -28 -25 -36 -17 -9 9 6 27 22 27 8 0 14 -5 14 -10z m384
-271 c14 -17 26 -35 26 -41 0 -5 11 -23 25 -40 35 -41 32 -70 -10 -103 -40
-30 -62 -28 -67 7 -2 18 -11 24 -38 28 -41 6 -63 47 -42 80 7 11 12 26 12 33
0 16 45 67 59 67 5 0 21 -14 35 -31z m2598 -201 c25 -53 49 -148 43 -167 -3
-10 -25 -25 -48 -34 -37 -14 -56 -14 -162 -2 -66 7 -121 14 -122 14 -12 4 3
34 31 67 29 34 35 37 50 25 9 -7 16 -22 16 -32 0 -18 2 -19 30 -4 35 18 37 26
9 43 -36 23 -20 54 46 89 33 18 67 33 76 33 8 0 22 -15 31 -32z m876 -886 c2
-12 -1 -22 -7 -22 -13 0 -32 35 -24 44 12 12 28 0 31 -22z m-105 -48 c41 -27
41 -38 1 -48 -32 -8 -74 16 -74 43 0 39 22 40 73 5z"/>
<path d="M3895 12620 c-3 -5 1 -10 9 -10 9 0 16 5 16 10 0 6 -4 10 -9 10 -6 0
-13 -4 -16 -10z"/>
<path d="M4235 12444 c-21 -22 -15 -50 10 -46 28 5 49 28 42 46 -8 21 -31 20
-52 0z"/>
<path d="M2897 12374 c-11 -12 3 -24 29 -24 15 0 24 6 24 15 0 15 -40 21 -53
9z"/>
<path d="M6625 12329 c-40 -36 -46 -76 -15 -104 27 -24 81 -13 120 26 78 79
-20 152 -105 78z"/>
<path d="M2825 12236 c-59 -27 -82 -51 -95 -96 -26 -91 124 -174 211 -116 42
27 81 91 86 140 5 38 2 48 -20 70 -35 35 -111 36 -182 2z"/>
<path d="M4432 12235 c-43 -36 -47 -62 -12 -96 34 -34 72 -37 100 -9 22 22 27
78 10 111 -15 27 -62 24 -98 -6z"/>
<path d="M6760 12199 c-25 -11 -66 -43 -92 -70 l-47 -50 -15 35 c-19 47 -56
49 -96 6 -55 -59 -47 -124 15 -119 19 2 37 0 41 -3 4 -4 -12 -36 -34 -70 -116
-178 -134 -308 -43 -308 160 0 501 326 501 478 0 100 -118 152 -230 101z"/>
<path d="M4994 12086 c-9 -23 3 -46 23 -46 28 0 45 16 41 36 -4 25 -56 32 -64
10z"/>
<path d="M2218 11956 c-131 -47 -249 -178 -265 -294 -12 -92 50 -189 137 -212
176 -47 399 91 440 273 17 78 4 125 -49 178 -66 67 -170 88 -263 55z"/>
<path d="M4315 11919 c-4 -6 -5 -13 -2 -16 7 -7 27 6 27 18 0 12 -17 12 -25
-2z"/>
<path d="M6255 11549 c-4 -6 -5 -13 -2 -16 7 -7 27 6 27 18 0 12 -17 12 -25
-2z"/>
<path d="M4360 11440 c0 -5 5 -10 10 -10 6 0 10 5 10 10 0 6 -4 10 -10 10 -5
0 -10 -4 -10 -10z"/>
<path d="M6645 11095 c-345 -103 -777 -369 -1065 -655 -127 -128 -197 -218
-251 -326 -57 -113 -66 -224 -19 -224 29 0 33 16 15 69 -14 42 -14 54 -2 88
40 118 200 288 362 386 161 98 432 176 473 135 7 -7 12 -34 12 -60 0 -42 3
-48 20 -48 35 0 83 25 290 150 208 126 298 170 414 202 85 23 117 40 184 94
49 40 70 49 155 68 34 8 34 19 2 40 -46 30 -153 49 -235 40 -104 -11 -138 -8
-167 13 -88 62 -78 61 -188 28z"/>
<path d="M846 11078 c-10 -15 -14 -48 -13 -98 1 -111 -27 -186 -238 -634 -169
-360 -322 -713 -313 -722 2 -1 30 59 62 134 80 186 254 534 420 840 201 369
216 408 191 469 -13 30 -18 33 -54 33 -31 0 -44 -5 -55 -22z"/>
<path d="M3170 11063 c0 -16 8 -37 18 -46 47 -43 58 4 12 48 l-30 29 0 -31z"/>
<path d="M3037 11053 c-12 -11 -8 -23 8 -23 8 0 15 7 15 15 0 16 -12 20 -23 8z"/>
<path d="M1540 11029 c-39 -16 -89 -58 -105 -89 -21 -41 -19 -109 5 -147 39
-64 121 -81 200 -40 126 64 147 218 37 270 -39 19 -98 21 -137 6z"/>
<path d="M2836 10814 c-32 -32 -13 -74 34 -74 31 0 50 17 50 45 0 43 -53 61
-84 29z"/>
<path d="M3000 10765 c0 -47 26 -85 56 -85 33 0 32 41 -2 86 -35 45 -54 44
-54 -1z"/>
<path d="M5214 10538 c-27 -17 -71 -44 -99 -60 l-50 -27 52 6 c44 5 60 2 104
-22 59 -31 110 -29 167 5 58 35 34 109 -40 124 -57 11 -84 6 -134 -26z"/>
<path d="M1340 10470 c-44 -23 -73 -71 -73 -122 0 -54 29 -89 88 -109 27 -8
50 -20 53 -27 5 -16 -46 -80 -77 -97 -25 -14 -25 -14 -4 -15 12 0 27 -9 33
-19 12 -23 73 -45 103 -37 40 10 77 54 77 90 0 28 -7 38 -40 60 -41 27 -48 40
-29 52 6 3 24 27 40 52 63 99 18 193 -93 192 -23 -1 -59 -9 -78 -20z"/>
<path d="M2892 10408 c-16 -16 -15 -47 2 -54 21 -8 56 14 56 35 0 28 -37 40
-58 19z"/>
<path d="M2507 10289 c-50 -12 -84 -35 -118 -83 -23 -31 -29 -50 -29 -90 0
-68 27 -111 87 -138 150 -66 329 95 256 229 -36 65 -120 100 -196 82z"/>
<path d="M1606 10199 c-34 -40 -33 -48 6 -81 29 -23 31 -29 20 -45 -31 -46
-27 -73 12 -73 30 0 46 41 26 66 -11 12 -7 21 23 52 21 21 37 47 37 59 0 59
-81 73 -124 22z"/>
<path d="M1078 10159 c-7 -5 -23 -9 -36 -9 -14 0 -27 -9 -34 -26 -13 -28 -5
-38 48 -70 17 -10 17 -12 -5 -50 -14 -23 -24 -56 -25 -82 -1 -38 4 -48 36 -78
32 -28 45 -34 84 -34 74 0 137 46 155 113 14 52 -12 105 -63 130 -37 18 -50
48 -28 62 19 12 11 44 -12 49 -38 7 -105 4 -120 -5z m72 -63 c0 -8 -5 -18 -11
-22 -14 -8 -33 11 -25 25 10 16 36 13 36 -3z"/>
<path d="M1977 10003 c-14 -13 -6 -33 12 -33 19 0 35 23 24 34 -8 8 -28 8 -36
-1z"/>
<path d="M2124 9981 c-36 -16 -54 -51 -54 -108 0 -70 22 -83 101 -59 79 24
110 55 101 101 -10 53 -93 89 -148 66z"/>
<path d="M1780 9875 c-18 -22 -8 -50 21 -53 31 -4 53 20 44 48 -8 24 -47 27
-65 5z"/>
<path d="M1455 9859 c-4 -6 -4 -13 -1 -16 8 -8 36 5 36 17 0 13 -27 13 -35 -1z"/>
<path d="M5455 9730 c-10 -11 -15 -23 -11 -27 11 -11 61 11 64 30 5 24 -30 22
-53 -3z"/>
<path d="M5133 9641 c-63 -39 -51 -97 20 -88 45 6 77 31 77 62 0 46 -43 58
-97 26z"/>
<path d="M5080 9471 c0 -15 38 -56 45 -49 8 8 -23 58 -36 58 -5 0 -9 -4 -9 -9z"/>
<path d="M2388 9318 c-16 -6 -31 -21 -37 -40 -10 -29 -13 -30 -48 -22 -21 4
-64 8 -96 8 -47 0 -65 -5 -100 -30 -105 -73 -115 -227 -17 -276 126 -64 304
55 279 185 -13 70 -11 77 26 92 32 14 55 40 55 64 0 18 -34 29 -62 19z"/>
<path d="M4940 9247 c-13 -7 -30 -24 -37 -37 -29 -58 55 -96 96 -44 27 34 27
59 -1 78 -27 19 -26 19 -58 3z"/>
<path d="M7390 9219 c-14 -4 -37 -11 -52 -14 -29 -6 -46 -41 -34 -71 5 -13 14
-15 44 -10 20 4 46 8 57 10 45 7 65 19 71 43 11 43 -28 62 -86 42z"/>
<path d="M6279 9147 c-13 -7 -25 -20 -27 -30 -4 -21 15 -47 34 -47 18 0 54 36
54 55 0 23 -33 35 -61 22z"/>
<path d="M1046 9135 c-57 -20 -87 -45 -114 -96 -22 -41 -24 -51 -19 -169 6
-141 22 -203 90 -335 49 -95 185 -239 258 -274 55 -26 190 -43 242 -31 107 24
138 100 101 257 -9 37 -20 106 -24 152 -7 67 -15 94 -40 133 -16 26 -44 71
-62 98 -36 57 -30 80 16 59 34 -16 38 -10 24 29 -15 38 -24 39 -55 10 l-23
-21 -83 85 c-70 73 -91 88 -137 102 -65 19 -122 20 -174 1z"/>
<path d="M4841 9025 c-45 -25 -89 -79 -109 -136 -9 -27 -10 -54 -3 -105 8 -56
7 -73 -5 -91 -14 -22 -13 -23 10 -23 13 0 34 -9 47 -19 22 -18 25 -18 43 -3
11 10 36 17 65 18 107 2 179 46 226 135 25 48 26 54 14 102 -6 28 -16 56 -20
62 -62 80 -62 80 -147 81 -64 1 -87 -3 -121 -21z"/>
<path d="M5200 8833 c0 -21 3 -24 9 -14 5 8 7 20 4 28 -8 21 -13 15 -13 -14z"/>
<path d="M6370 8841 c0 -11 4 -22 8 -25 14 -9 35 12 29 28 -9 23 -37 20 -37
-3z"/>
<path d="M5828 8776 c-20 -7 -59 -27 -86 -45 -27 -17 -56 -31 -64 -31 -25 0
-41 -27 -34 -56 5 -19 2 -30 -10 -39 -11 -8 -14 -17 -8 -26 14 -22 4 -61 -24
-94 -22 -27 -31 -30 -80 -30 -47 0 -57 -4 -73 -25 -42 -57 12 -113 80 -84 18
8 45 14 60 14 14 0 39 7 54 15 27 14 31 13 65 -10 79 -54 141 -14 186 122 32
94 33 96 73 117 50 25 76 90 57 141 -16 42 -120 58 -196 31z"/>
<path d="M6126 8659 c-14 -11 -37 -39 -50 -62 -48 -84 -41 -157 14 -157 40 0
66 28 75 81 4 24 14 56 21 71 8 15 14 41 14 58 0 25 -4 30 -24 30 -13 0 -35
-9 -50 -21z"/>
<path d="M2324 8539 c-9 -15 12 -33 30 -26 9 4 16 13 16 22 0 17 -35 21 -46 4z"/>
<path d="M7041 8524 c-27 -34 -27 -58 0 -85 40 -40 119 -4 119 56 0 41 -16 55
-61 55 -29 0 -43 -6 -58 -26z"/>
<path d="M7608 8519 c-19 -10 -24 -29 -9 -29 5 0 19 9 32 20 26 21 9 28 -23 9z"/>
<path d="M6234 8496 c-10 -8 -16 -17 -13 -20 3 -3 14 1 25 8 10 8 16 17 13 20
-3 3 -14 -1 -25 -8z"/>
<path d="M6403 8460 c-27 -11 -40 -54 -23 -75 19 -23 66 -19 84 7 20 28 20 43
0 62 -17 18 -29 19 -61 6z"/>
<path d="M3 8380 c0 -41 2 -58 4 -37 2 20 2 54 0 75 -2 20 -4 3 -4 -38z"/>
<path d="M7223 8400 c-26 -11 -41 -56 -26 -79 14 -22 50 -25 79 -7 30 21 33
70 5 86 -23 12 -28 12 -58 0z"/>
<path d="M5028 8373 c-25 -4 -28 -9 -28 -42 0 -67 64 -95 108 -48 28 30 28 62
0 81 -22 16 -29 17 -80 9z"/>
<path d="M8302 8345 c-41 -34 -48 -69 -22 -105 12 -17 32 -33 46 -36 50 -13
124 41 124 91 0 12 -9 34 -21 49 -28 36 -85 36 -127 1z"/>
<path d="M6150 8248 c0 -13 -49 -43 -72 -43 -17 0 -29 -25 -31 -65 -3 -80 73
-113 147 -65 52 34 61 145 11 145 -13 0 -31 10 -39 22 -12 17 -16 18 -16 6z"/>
<path d="M7168 8250 c-65 -12 -99 -60 -44 -60 26 0 87 38 94 58 4 13 4 13 -50
2z"/>
<path d="M6893 8243 c-27 -5 -63 -48 -63 -74 0 -28 36 -59 69 -59 40 0 81 35
81 69 0 48 -35 74 -87 64z"/>
<path d="M1581 8218 c-10 -28 -4 -46 20 -59 41 -22 80 36 47 69 -20 20 -58 14
-67 -10z"/>
<path d="M5371 8164 c-24 -31 -26 -44 -8 -68 12 -16 18 -17 48 -7 48 16 65 45
44 77 -21 32 -58 31 -84 -2z"/>
<path d="M5905 8170 c-3 -5 -2 -10 4 -10 5 0 13 5 16 10 3 6 2 10 -4 10 -5 0
-13 -4 -16 -10z"/>
<path d="M1851 8056 c-69 -38 -65 -172 8 -245 62 -62 193 24 208 136 9 69 -58
123 -149 123 -24 -1 -54 -7 -67 -14z"/>
<path d="M6670 8060 c-8 -5 -11 -12 -8 -16 10 -9 38 3 38 16 0 12 -10 13 -30
0z"/>
<path d="M1231 7960 c-46 -11 -82 -39 -108 -86 -40 -69 -23 -152 39 -188 39
-24 134 -24 182 -1 19 9 39 14 44 11 5 -3 9 -26 10 -51 0 -54 20 -88 63 -111
27 -14 38 -14 76 -3 24 6 58 25 74 41 24 25 29 38 29 79 0 35 6 58 21 78 32
43 36 109 10 143 -26 32 -78 49 -126 41 -21 -3 -35 -1 -35 5 0 15 -32 24 -41
11 -4 -7 -2 -20 3 -29 9 -13 7 -23 -8 -43 -25 -34 -34 -34 -34 1 0 34 -39 74
-92 96 -41 17 -55 18 -107 6z"/>
<path d="M5897 7953 c-4 -3 -7 -17 -7 -30 0 -19 5 -23 29 -23 30 0 50 28 36
50 -7 11 -48 14 -58 3z"/>
<path d="M5613 7914 l-27 -27 22 -10 c14 -6 34 -7 54 -1 26 8 33 15 33 34 0
38 -46 40 -82 4z"/>
<path d="M6032 7907 c-41 -44 -19 -100 38 -100 36 0 80 39 80 72 0 49 -80 68
-118 28z"/>
<path d="M6771 7856 c-10 -12 -8 -15 11 -18 13 -2 23 -10 23 -18 0 -14 -16
-25 -79 -52 -39 -17 -49 -43 -13 -34 19 4 28 0 41 -19 16 -25 19 -25 151 -25
l135 0 6 25 c8 34 -1 42 -25 21 -30 -27 -54 -17 -63 29 -13 60 -34 78 -85 70
-36 -5 -43 -3 -53 14 -13 24 -33 27 -49 7z"/>
<path d="M7605 7850 c-35 -18 -45 -19 -81 -10 -56 16 -107 -6 -130 -54 -14
-29 -15 -39 -5 -64 l13 -30 152 -1 c84 0 157 3 163 7 5 4 17 21 25 37 26 53
-4 124 -54 125 -9 0 -22 2 -30 5 -7 3 -31 -4 -53 -15z"/>
<path d="M5516 7821 c-4 -7 -5 -15 -2 -18 9 -9 19 4 14 18 -4 11 -6 11 -12 0z"/>
<path d="M6045 7625 c-30 -29 -32 -56 -7 -78 29 -26 77 -22 101 9 26 33 27 56
3 77 -27 24 -69 21 -97 -8z"/>
<path d="M6766 7571 c-4 -7 -5 -15 -2 -18 9 -9 19 4 14 18 -4 11 -6 11 -12 0z"/>
<path d="M6410 7544 c0 -8 5 -12 10 -9 6 3 10 10 10 16 0 5 -4 9 -10 9 -5 0
-10 -7 -10 -16z"/>
<path d="M1130 7516 c-20 -25 -8 -61 21 -64 33 -4 53 20 45 53 -7 29 -45 35
-66 11z"/>
<path d="M1789 7499 c-37 -4 -80 -14 -97 -23 -38 -20 -92 -96 -92 -129 0 -41
-22 -51 -78 -37 -62 16 -89 9 -142 -38 -39 -34 -43 -43 -47 -92 -6 -67 15
-100 75 -118 47 -14 77 -6 132 38 21 17 42 30 47 30 13 0 30 -39 39 -87 8 -44
52 -111 95 -142 36 -27 131 -61 170 -61 79 0 268 121 297 190 13 31 13 43 -3
107 -17 74 -15 93 11 93 8 0 14 5 14 11 0 5 -10 9 -22 7 -20 -3 -28 8 -59 73
-70 145 -169 197 -340 178z"/>
<path d="M5467 7490 c-23 -34 -21 -44 4 -19 11 11 19 25 17 31 -3 7 -12 1 -21
-12z"/>
<path d="M6022 7493 c-6 -2 -10 -9 -7 -13 7 -11 35 -2 35 11 0 10 -8 10 -28 2z"/>
<path d="M5520 7455 c0 -8 5 -15 10 -15 6 0 10 7 10 15 0 8 -4 15 -10 15 -5 0
-10 -7 -10 -15z"/>
<path d="M5893 7445 c-43 -18 -46 -49 -4 -34 34 12 73 49 50 49 -8 -1 -29 -7
-46 -15z"/>
<path d="M5155 7411 c-3 -6 0 -12 7 -12 27 -3 34 -4 56 -17 18 -11 22 -10 22
1 0 8 -10 17 -22 20 -13 2 -30 8 -39 11 -10 4 -20 3 -24 -3z"/>
<path d="M1460 7380 c0 -5 5 -10 10 -10 6 0 10 5 10 10 0 6 -4 10 -10 10 -5 0
-10 -4 -10 -10z"/>
<path d="M5680 7375 c0 -9 5 -15 11 -13 6 2 11 8 11 13 0 5 -5 11 -11 13 -6 2
-11 -4 -11 -13z"/>
<path d="M1535 7369 c-4 -6 -4 -13 -1 -16 8 -8 36 5 36 17 0 13 -27 13 -35 -1z"/>
<path d="M6083 7363 c-18 -7 -16 -40 2 -47 8 -3 21 2 29 10 27 26 5 52 -31 37z"/>
<path d="M5079 7304 c-11 -14 -10 -15 11 -12 13 1 25 9 28 16 5 17 -23 15 -39
-4z"/>
<path d="M7835 7290 c-11 -5 -35 -14 -54 -21 -81 -30 -131 -118 -138 -241 -5
-92 6 -121 42 -112 15 4 40 -1 61 -11 51 -24 176 -22 206 3 8 6 26 15 41 21
15 6 27 17 27 25 0 7 11 21 23 29 30 19 53 96 48 157 -2 35 -11 54 -39 85 -20
22 -50 46 -66 53 -37 16 -124 23 -151 12z"/>
<path d="M5955 7200 c-8 -14 3 -30 21 -30 8 0 14 9 14 20 0 21 -24 28 -35 10z"/>
<path d="M6691 7156 c-7 -8 -11 -27 -9 -43 2 -24 8 -28 36 -31 44 -4 64 13 60
52 -3 28 -7 31 -39 34 -23 2 -40 -2 -48 -12z"/>
<path d="M6653 7023 c-29 -6 -73 -58 -73 -86 0 -27 8 -38 40 -60 36 -25 74
-21 109 12 25 23 31 37 31 70 0 35 -4 43 -30 56 -29 15 -36 16 -77 8z"/>
<path d="M5764 6926 c-9 -24 0 -51 19 -54 15 -3 18 2 15 29 -3 35 -24 51 -34
25z"/>
<path d="M3215 6850 c-3 -5 1 -10 9 -10 8 0 18 5 21 10 3 6 -1 10 -9 10 -8 0
-18 -4 -21 -10z"/>
<path d="M5956 6824 c-9 -23 6 -36 35 -32 16 2 24 10 24 23 0 27 -49 34 -59 9z"/>
<path d="M5760 6805 c-20 -24 -8 -50 24 -50 36 0 56 26 37 49 -17 20 -45 21
-61 1z"/>
<path d="M1836 6741 c-25 -28 -17 -55 17 -59 35 -4 57 13 57 43 0 37 -46 47
-74 16z"/>
<path d="M7228 6725 c-64 -18 -62 -16 -92 -90 -31 -78 -32 -100 -6 -142 25
-42 74 -52 127 -27 46 23 73 75 80 154 5 50 3 59 -22 88 -15 18 -30 31 -33 31
-4 -1 -28 -7 -54 -14z"/>
<path d="M3075 6710 c-9 -15 3 -30 24 -30 23 0 31 9 24 26 -6 16 -39 19 -48 4z"/>
<path d="M3158 6693 c7 -3 16 -2 19 1 4 3 -2 6 -13 5 -11 0 -14 -3 -6 -6z"/>
<path d="M6820 6610 c0 -5 7 -10 15 -10 8 0 15 5 15 10 0 6 -7 10 -15 10 -8 0
-15 -4 -15 -10z"/>
<path d="M2391 6564 c-74 -62 -8 -131 104 -110 74 14 80 86 9 120 -48 23 -78
20 -113 -10z"/>
<path d="M6802 6534 c-42 -29 -19 -84 36 -84 22 0 52 30 52 53 0 21 -27 47
-48 47 -10 0 -28 -7 -40 -16z"/>
<path d="M2617 6423 c-12 -11 -8 -23 8 -23 8 0 15 7 15 15 0 16 -12 20 -23 8z"/>
<path d="M7384 6371 c-17 -10 -37 -33 -44 -50 -12 -29 -11 -35 7 -59 55 -74
165 0 131 87 -17 45 -45 52 -94 22z"/>
<path d="M7825 6350 c-4 -6 5 -10 19 -10 14 0 26 5 26 10 0 6 -9 10 -19 10
-11 0 -23 -4 -26 -10z"/>
<path d="M7103 6223 c-21 -8 -15 -23 12 -33 26 -10 145 -2 145 9 0 18 -126 37
-157 24z"/>
<path d="M2539 6161 c-17 -14 -21 -23 -13 -31 16 -16 66 5 62 27 -5 24 -22 26
-49 4z"/>
<path d="M2640 6150 c0 -5 4 -10 9 -10 6 0 13 5 16 10 3 6 -1 10 -9 10 -9 0
-16 -4 -16 -10z"/>
<path d="M7160 6130 c0 -5 15 -10 33 -9 27 0 29 2 12 9 -28 12 -45 12 -45 0z"/>
<path d="M6860 6050 c0 -5 5 -10 11 -10 5 0 7 5 4 10 -3 6 -8 10 -11 10 -2 0
-4 -4 -4 -10z"/>
<path d="M8542 6024 c-12 -8 -45 -49 -72 -90 -68 -99 -81 -108 -145 -88 -90
27 -142 -4 -132 -78 4 -29 -3 -77 -24 -156 -43 -166 -56 -323 -37 -432 27
-151 89 -276 192 -387 69 -75 107 -98 135 -84 52 28 31 80 -51 129 -90 53
-171 137 -191 197 -37 106 -13 200 58 229 44 19 56 46 101 223 37 148 65 211
134 298 88 112 128 194 115 235 -8 25 -51 27 -83 4z"/>
<path d="M2440 6020 c0 -5 5 -10 10 -10 6 0 10 5 10 10 0 6 -4 10 -10 10 -5 0
-10 -4 -10 -10z"/>
<path d="M6912 5928 c5 -15 28 -18 29 -3 0 6 -7 12 -17 13 -10 3 -15 -1 -12
-10z"/>
<path d="M3083 5815 c-9 -20 -8 -25 2 -25 7 0 15 11 17 25 7 32 -4 32 -19 0z"/>
<path d="M7207 5793 c-13 -12 -7 -33 8 -33 8 0 15 9 15 20 0 20 -11 26 -23 13z"/>
<path d="M1332 5738 c-17 -17 -15 -26 8 -38 16 -8 24 -6 40 10 11 11 18 25 15
30 -9 14 -49 12 -63 -2z"/>
<path d="M7255 5699 c-4 -6 -5 -13 -2 -16 7 -7 27 6 27 18 0 12 -17 12 -25 -2z"/>
<path d="M7666 5634 c-26 -26 -18 -39 9 -14 14 13 25 25 25 27 0 9 -20 1 -34
-13z"/>
<path d="M7795 5590 c-7 -11 38 -24 57 -18 7 3 -2 10 -20 16 -18 6 -34 7 -37
2z"/>
<path d="M2760 5555 c0 -10 7 -15 18 -13 21 4 19 22 -2 26 -10 2 -16 -3 -16
-13z"/>
<path d="M2405 5494 c-18 -19 -16 -33 7 -48 12 -7 21 -6 32 3 21 17 21 47 0
55 -21 8 -20 8 -39 -10z"/>
<path d="M2835 5490 c3 -5 8 -10 11 -10 2 0 4 5 4 10 0 6 -5 10 -11 10 -5 0
-7 -4 -4 -10z"/>
<path d="M2080 5470 c0 -5 5 -10 10 -10 6 0 10 5 10 10 0 6 -4 10 -10 10 -5 0
-10 -4 -10 -10z"/>
<path d="M845 5400 c-37 -41 -15 -100 37 -100 32 0 78 41 78 70 0 46 -81 67
-115 30z"/>
<path d="M2320 5390 c-36 -36 -25 -92 22 -116 83 -43 148 51 77 110 -37 31
-72 33 -99 6z"/>
<path d="M8501 5301 c-21 -13 -4 -31 30 -31 33 0 38 14 10 30 -23 12 -22 12
-40 1z"/>
<path d="M1743 5254 c-3 -8 -1 -20 5 -26 16 -16 42 -2 42 22 0 24 -38 28 -47
4z"/>
<path d="M1874 5216 c-8 -22 3 -33 18 -18 9 9 9 15 0 24 -9 9 -13 7 -18 -6z"/>
<path d="M2019 5146 c-16 -34 3 -58 44 -54 62 6 61 70 -1 76 -26 3 -34 -2 -43
-22z"/>
<path d="M2180 5140 c0 -5 5 -10 10 -10 6 0 10 5 10 10 0 6 -4 10 -10 10 -5 0
-10 -4 -10 -10z"/>
<path d="M2330 5035 c-7 -9 -10 -27 -7 -44 4 -21 1 -34 -14 -47 -10 -9 -24
-34 -30 -54 -15 -50 4 -89 54 -113 40 -19 45 -31 22 -61 -8 -11 -15 -29 -15
-40 0 -12 -7 -30 -15 -40 -47 -62 39 -149 130 -132 18 4 39 14 46 22 21 26 16
80 -10 108 -14 15 -21 31 -17 41 4 11 -5 27 -24 47 -17 16 -30 32 -30 36 0 3
12 19 27 34 15 16 37 48 48 71 20 41 21 42 64 39 24 -2 54 2 66 8 18 10 27 9
48 -5 14 -9 27 -26 29 -38 2 -12 15 -28 29 -36 24 -13 29 -13 53 2 34 23 36
71 4 88 -13 6 -35 23 -50 36 -22 21 -33 24 -61 19 -19 -4 -47 -2 -62 4 -24 9
-34 7 -67 -16 -33 -23 -42 -25 -63 -16 -14 6 -25 20 -25 30 0 11 -9 31 -21 46
-16 20 -29 26 -59 26 -21 0 -43 -6 -50 -15z"/>
<path d="M2035 4660 c-8 -13 3 -30 20 -30 14 0 27 24 18 34 -10 9 -31 7 -38
-4z"/>
<path d="M2570 4589 c0 -5 5 -7 10 -4 6 3 10 8 10 11 0 2 -4 4 -10 4 -5 0 -10
-5 -10 -11z"/>
<path d="M2084 4525 c-10 -25 4 -45 30 -45 30 0 40 13 31 40 -8 24 -53 28 -61
5z"/>
<path d="M1153 4523 c-21 -8 -15 -33 7 -33 13 0 20 7 20 20 0 20 -5 23 -27 13z"/>
<path d="M1171 3956 c-20 -23 -51 -148 -51 -201 0 -57 21 -95 51 -95 29 0 38
36 23 88 -15 48 -17 79 -11 165 2 31 3 57 2 57 -1 0 -8 -6 -14 -14z"/>
<path d="M2620 3759 c0 -5 5 -7 10 -4 6 3 10 8 10 11 0 2 -4 4 -10 4 -5 0 -10
-5 -10 -11z"/>
<path d="M2671 3666 c-9 -10 -8 -16 4 -26 19 -16 41 1 32 24 -8 20 -21 20 -36
2z"/>
<path d="M9657 3544 c-8 -8 1 -24 14 -24 5 0 9 7 9 15 0 15 -12 20 -23 9z"/>
<path d="M9958 3529 c-32 -18 -21 -52 36 -101 46 -40 56 -45 66 -33 22 26 -40
146 -74 145 -6 0 -19 -5 -28 -11z"/>
<path d="M4347 3216 c-21 -8 -56 -26 -77 -41 -26 -18 -45 -25 -59 -20 -23 7
-29 -13 -10 -32 9 -9 6 -21 -10 -48 -20 -34 -21 -42 -10 -99 25 -127 131 -173
288 -125 36 11 91 71 118 128 21 45 16 133 -10 172 -44 67 -144 95 -230 65z"/>
<path d="M9286 3127 c-12 -9 -17 -23 -14 -42 4 -39 28 -39 46 -1 12 24 12 30
0 42 -12 12 -17 12 -32 1z"/>
<path d="M3973 2919 c-6 -6 -22 -17 -35 -23 -17 -9 -23 -20 -23 -46 0 -24 5
-36 16 -38 23 -4 113 83 106 103 -7 17 -48 20 -64 4z"/>
<path d="M9904 2861 c-71 -43 -71 -191 0 -191 76 0 142 153 84 194 -29 21 -46
20 -84 -3z"/>
<path d="M4817 2802 c-10 -10 -17 -24 -17 -30 0 -15 29 -42 45 -42 37 0 62 71
29 84 -26 10 -40 7 -57 -12z"/>
<path d="M4561 2666 c-50 -26 -59 -42 -60 -101 -2 -103 111 -139 194 -61 29
27 35 41 35 73 0 51 -29 89 -78 103 -46 12 -39 13 -91 -14z"/>
<path d="M4091 2514 c-65 -83 35 -169 110 -95 54 54 26 121 -50 121 -31 0 -44
-6 -60 -26z"/>
<path d="M4358 2533 c-20 -5 -31 -33 -22 -57 7 -19 45 -21 62 -4 28 28 1 70
-40 61z"/>
<path d="M3940 2515 c0 -8 7 -15 15 -15 8 0 15 7 15 15 0 8 -7 15 -15 15 -8 0
-15 -7 -15 -15z"/>
<path d="M7572 2480 c-32 -30 -29 -66 9 -85 67 -35 119 6 88 71 -18 38 -64 44
-97 14z"/>
<path d="M7819 2474 c-10 -12 -10 -22 -1 -48 17 -47 16 -50 -33 -106 -25 -28
-45 -56 -45 -64 0 -21 61 -107 111 -158 66 -66 124 -82 267 -73 126 8 177 -2
227 -46 46 -41 63 -96 47 -155 -16 -60 -16 -64 12 -64 56 0 63 66 20 195 -70
210 -193 381 -331 462 -109 64 -245 92 -274 57z"/>
<path d="M3137 2473 c-12 -11 -8 -23 8 -23 8 0 15 7 15 15 0 16 -12 20 -23 8z"/>
<path d="M3590 2469 c0 -5 5 -7 10 -4 6 3 10 8 10 11 0 2 -4 4 -10 4 -5 0 -10
-5 -10 -11z"/>
<path d="M5417 2394 c-9 -10 2 -24 19 -24 8 0 14 7 14 15 0 15 -21 21 -33 9z"/>
<path d="M6424 2286 c-74 -33 -97 -115 -46 -162 23 -22 34 -25 75 -21 67 6
102 41 102 102 0 73 -62 112 -131 81z"/>
<path d="M5787 2205 c-100 -35 -139 -140 -87 -232 32 -57 66 -78 126 -78 43 0
60 6 110 41 66 46 112 64 158 64 98 -1 311 -147 348 -239 6 -14 14 -59 18 -98
4 -40 13 -80 20 -88 17 -21 63 -19 83 3 26 29 20 60 -20 107 -21 23 -60 78
-87 121 -154 248 -262 346 -435 398 -66 19 -182 20 -234 1z"/>
<path d="M7572 2177 c-12 -13 -22 -36 -22 -52 0 -71 95 -167 167 -169 32 -1
39 3 47 26 13 38 -13 101 -70 166 -52 59 -86 68 -122 29z"/>
<path d="M3260 2170 c-11 -11 -20 -27 -20 -35 0 -47 90 -74 123 -37 24 26 21
47 -9 71 -34 26 -68 27 -94 1z"/>
<path d="M5243 2173 c-53 -10 -55 -63 -3 -63 41 0 70 16 70 39 0 17 -21 33
-38 30 -4 -1 -17 -4 -29 -6z"/>
<path d="M4616 2088 c-30 -43 29 -67 75 -30 32 26 20 52 -25 52 -24 0 -39 -7
-50 -22z"/>
<path d="M3215 1920 c-3 -5 -1 -10 4 -10 6 0 11 5 11 10 0 6 -2 10 -4 10 -3 0
-8 -4 -11 -10z"/>
<path d="M3880 1885 c0 -8 9 -15 20 -15 11 0 20 7 20 15 0 8 -9 15 -20 15 -11
0 -20 -7 -20 -15z"/>
<path d="M5625 1749 c-4 -6 -5 -13 -2 -16 7 -7 27 6 27 18 0 12 -17 12 -25 -2z"/>
<path d="M4300 1577 c-20 -10 -25 -20 -25 -52 0 -34 4 -41 28 -49 36 -13 77 2
96 35 13 24 13 29 -2 53 -19 29 -56 34 -97 13z"/>
<path d="M8472 1568 c-31 -31 7 -102 51 -96 28 4 42 44 28 81 -8 21 -17 27
-39 27 -15 0 -33 -5 -40 -12z"/>
<path d="M7917 1389 c-34 -26 -54 -88 -38 -117 13 -24 45 -36 82 -30 31 4 69
62 69 104 0 59 -63 83 -113 43z"/>
<path d="M6682 1368 c-27 -27 2 -88 42 -88 29 0 46 18 46 50 0 33 -17 50 -50
50 -14 0 -31 -5 -38 -12z"/>
<path d="M4854 1246 c-61 -31 -154 -135 -154 -172 0 -35 40 -92 74 -104 77
-27 230 1 282 51 45 43 62 109 43 162 -20 56 -54 78 -130 84 -55 4 -71 1 -115
-21z"/>
<path d="M9007 1143 c-4 -3 -7 -19 -7 -35 0 -20 5 -28 18 -28 25 0 42 19 42
47 0 17 -6 23 -23 23 -13 0 -27 -3 -30 -7z"/>
<path d="M8575 1089 c-12 -19 5 -23 22 -6 16 16 16 17 1 17 -9 0 -20 -5 -23
-11z"/>
<path d="M7815 366 c-11 -8 -17 -18 -13 -21 11 -11 60 4 56 17 -6 18 -22 20
-43 4z"/>
<path d="M7921 289 c-110 -44 -180 -190 -118 -246 52 -48 99 -55 169 -24 69
30 92 61 96 134 2 49 -1 69 -17 95 -30 47 -77 62 -130 41z"/>
</g>
</svg>
